<svg width="38" height="34" viewBox="0 0 38 34" fill="none" xmlns="http://www.w3.org/2000/svg">
<g id="icon-react">
<g id="Vector">
<path fill-rule="evenodd" clip-rule="evenodd" d="M14.8669 24.1247L14.8626 24.1187L14.8573 24.1182L14.8615 24.1243L14.8669 24.1247ZM23.1045 24.1243L23.1079 24.1194L23.1033 24.1198L23.0999 24.1246L23.1045 24.1243ZM10.7412 16.9951L10.7384 17.0011L10.7355 16.9951L10.7384 16.9892L10.7412 16.9951ZM27.2276 16.9892L27.2248 16.9951L27.2276 17.0012L27.2304 16.9951L27.2276 16.9892Z" fill="url(#paint0_linear_386_256)"/>
<path fill-rule="evenodd" clip-rule="evenodd" d="M0.5 0.5V33.5H37.5V0.5H0.5ZM27.9745 32.5358C27.4237 32.8516 26.8033 33.0112 26.1717 32.9989C24.1698 32.9989 21.633 31.5908 18.9812 29.0059C16.3337 31.5916 13.7969 33 11.7999 33V32.9989C11.1671 33.0101 10.5411 32.8528 9.99149 32.5369C7.83328 31.294 7.32186 27.8405 8.55824 23.0037C3.74471 21.6495 1 19.4819 1 16.9951C1 14.5084 3.74569 12.3408 8.55829 10.9866C7.32184 6.14839 7.83325 2.6906 9.99149 1.44661C12.1088 0.225878 15.441 1.54101 18.983 4.98292C22.5249 1.54101 25.8572 0.225878 27.9745 1.44661C30.1327 2.68953 30.6441 6.14827 29.4077 10.9866C34.2212 12.3408 36.966 14.5084 36.966 16.9951C36.966 19.4818 34.2204 21.6494 29.408 23.0036C30.644 27.8408 30.1326 31.293 27.9745 32.5358Z" fill="url(#paint1_linear_386_256)"/>
<path d="M23.1045 9.86489C24.814 10.0234 26.4414 10.2751 27.952 10.6202C28.9826 6.59311 28.7129 3.60682 27.2259 2.747C25.7446 1.89281 22.9583 3.20332 20.0316 6.05475C21.1376 7.26073 22.1626 8.53078 23.1045 9.86602V9.86489Z" fill="url(#paint2_linear_386_256)"/>
<path d="M28.9984 21.5617C33.0086 20.4321 35.461 18.7114 35.461 16.9951C35.461 15.2789 33.0018 13.5593 28.9984 12.4286C28.5068 13.9831 27.9165 15.5097 27.2276 16.9892L27.2304 16.9951L27.2276 17.0012C27.9468 18.5557 28.5426 20.0823 28.9984 21.5617Z" fill="url(#paint3_linear_386_256)"/>
<path d="M26.3695 18.7544C25.7089 20.036 24.987 21.2862 24.205 22.4981C25.3238 22.3609 26.4354 22.1689 27.5373 21.9221C27.1994 20.8482 26.8095 19.791 26.3695 18.7544Z" fill="url(#paint4_linear_386_256)"/>
<path d="M18.9797 26.8564C19.7435 26.0259 20.4665 25.1594 21.1475 24.2592C20.4196 24.2944 19.6955 24.312 18.983 24.312C18.2675 24.312 17.5422 24.2942 16.8117 24.2588C17.4927 25.1591 18.2158 26.0258 18.9797 26.8564Z" fill="url(#paint5_linear_386_256)"/>
<path d="M13.7614 22.4942C13.3716 21.8903 12.9956 21.2769 12.6372 20.6536C12.2736 20.0277 11.9278 19.3944 11.5972 18.7532C11.1572 19.79 10.7668 20.8483 10.4287 21.9254C11.4845 22.1623 12.599 22.3517 13.7614 22.4942Z" fill="url(#paint6_linear_386_256)"/>
<path d="M11.5968 15.2389C11.9278 14.5972 12.274 13.9631 12.6372 13.3367C12.9956 12.718 13.3735 12.0993 13.7676 11.4873C12.6451 11.6261 11.5303 11.8181 10.4271 12.0633C10.7655 13.1393 11.156 14.1987 11.5968 15.2389Z" fill="url(#paint7_linear_386_256)"/>
<path d="M16.818 9.73059C18.2613 9.66095 19.7065 9.6609 21.1479 9.73045C20.4677 8.83146 19.7457 7.96593 18.983 7.13639C18.2202 7.96598 17.4982 8.83155 16.818 9.73059Z" fill="url(#paint8_linear_386_256)"/>
<path d="M24.2007 11.4889C24.9827 12.702 25.707 13.9534 26.3691 15.2363C26.8091 14.1994 27.1995 13.1411 27.5376 12.0639C26.4342 11.8197 25.321 11.628 24.2007 11.4889Z" fill="url(#paint9_linear_386_256)"/>
<path fill-rule="evenodd" clip-rule="evenodd" d="M15.6932 22.6845C17.9063 22.8542 20.0597 22.8542 22.2784 22.6845C23.5136 20.8761 24.6139 18.9733 25.5681 16.994C24.6195 15.0159 23.5192 13.1131 22.2727 11.3035C20.0833 11.1338 17.8826 11.1338 15.6932 11.3035C14.4468 13.1119 13.3453 15.0148 12.3978 16.994C13.3521 18.9722 14.4524 20.875 15.6932 22.6845ZM15.7753 17.0008C15.7753 15.2328 17.215 13.7931 18.983 13.7931C20.7509 13.7931 22.1907 15.2328 22.1907 17.0008C22.1907 18.7687 20.7509 20.2085 18.983 20.2085C17.215 20.2085 15.7753 18.7687 15.7753 17.0008Z" fill="url(#paint10_linear_386_256)"/>
<path d="M10.0151 23.3701C8.98444 27.3972 9.25419 30.3835 10.7412 31.2433C12.2225 32.0862 15.0031 30.787 17.9355 27.9355C16.8312 26.7314 15.802 25.4633 14.8669 24.1247L14.8615 24.1243L14.8573 24.1182C13.226 23.9776 11.6116 23.7271 10.0151 23.3701Z" fill="url(#paint11_linear_386_256)"/>
<path d="M20.0305 27.9355C22.366 30.2126 24.5791 31.5007 26.1649 31.5007H26.1706C26.5684 31.5007 26.9258 31.413 27.2248 31.2433C28.7118 30.3824 28.9815 27.3972 27.9509 23.3701C26.3541 23.7272 24.7338 23.9788 23.1079 24.1194L23.1045 24.1243L23.0999 24.1246C22.1646 25.4637 21.1351 26.731 20.0305 27.9355Z" fill="url(#paint12_linear_386_256)"/>
<path d="M8.96759 12.4286C4.963 13.5525 2.50495 15.2789 2.50495 16.9951C2.50495 18.7114 4.96412 20.431 8.96759 21.5617C9.45921 20.0004 10.0495 18.4806 10.7384 17.0011L10.7355 16.9951L10.7384 16.9892C10.0483 15.5097 9.45808 13.9899 8.96759 12.4286Z" fill="url(#paint13_linear_386_256)"/>
<path d="M11.7999 2.48962C11.3964 2.48962 11.039 2.57167 10.74 2.747C9.25307 3.60794 8.99006 6.59311 10.014 10.6202C11.6122 10.2628 13.2273 10.011 14.8615 9.86489C15.7977 8.52966 16.8284 7.25399 17.9344 6.05363C15.5988 3.77653 13.3858 2.48962 11.7999 2.48962Z" fill="url(#paint14_linear_386_256)"/>
</g>
</g>
<defs>
<linearGradient id="paint0_linear_386_256" x1="36.966" y1="1" x2="7.39126" y2="36.4561" gradientUnits="userSpaceOnUse">
<stop stop-color="#56CCBE"/>
<stop offset="0.962777" stop-color="#0A6156"/>
</linearGradient>
<linearGradient id="paint1_linear_386_256" x1="36.966" y1="1" x2="7.39126" y2="36.4561" gradientUnits="userSpaceOnUse">
<stop stop-color="#56CCBE"/>
<stop offset="0.962777" stop-color="#0A6156"/>
</linearGradient>
<linearGradient id="paint2_linear_386_256" x1="36.966" y1="1" x2="7.39126" y2="36.4561" gradientUnits="userSpaceOnUse">
<stop stop-color="#56CCBE"/>
<stop offset="0.962777" stop-color="#0A6156"/>
</linearGradient>
<linearGradient id="paint3_linear_386_256" x1="36.966" y1="1" x2="7.39126" y2="36.4561" gradientUnits="userSpaceOnUse">
<stop stop-color="#56CCBE"/>
<stop offset="0.962777" stop-color="#0A6156"/>
</linearGradient>
<linearGradient id="paint4_linear_386_256" x1="36.966" y1="1" x2="7.39126" y2="36.4561" gradientUnits="userSpaceOnUse">
<stop stop-color="#56CCBE"/>
<stop offset="0.962777" stop-color="#0A6156"/>
</linearGradient>
<linearGradient id="paint5_linear_386_256" x1="36.966" y1="1" x2="7.39126" y2="36.4561" gradientUnits="userSpaceOnUse">
<stop stop-color="#56CCBE"/>
<stop offset="0.962777" stop-color="#0A6156"/>
</linearGradient>
<linearGradient id="paint6_linear_386_256" x1="36.966" y1="1" x2="7.39126" y2="36.4561" gradientUnits="userSpaceOnUse">
<stop stop-color="#56CCBE"/>
<stop offset="0.962777" stop-color="#0A6156"/>
</linearGradient>
<linearGradient id="paint7_linear_386_256" x1="36.966" y1="1" x2="7.39126" y2="36.4561" gradientUnits="userSpaceOnUse">
<stop stop-color="#56CCBE"/>
<stop offset="0.962777" stop-color="#0A6156"/>
</linearGradient>
<linearGradient id="paint8_linear_386_256" x1="36.966" y1="1" x2="7.39126" y2="36.4561" gradientUnits="userSpaceOnUse">
<stop stop-color="#56CCBE"/>
<stop offset="0.962777" stop-color="#0A6156"/>
</linearGradient>
<linearGradient id="paint9_linear_386_256" x1="36.966" y1="1" x2="7.39126" y2="36.4561" gradientUnits="userSpaceOnUse">
<stop stop-color="#56CCBE"/>
<stop offset="0.962777" stop-color="#0A6156"/>
</linearGradient>
<linearGradient id="paint10_linear_386_256" x1="36.966" y1="1" x2="7.39126" y2="36.4561" gradientUnits="userSpaceOnUse">
<stop stop-color="#56CCBE"/>
<stop offset="0.962777" stop-color="#0A6156"/>
</linearGradient>
<linearGradient id="paint11_linear_386_256" x1="36.966" y1="1" x2="7.39126" y2="36.4561" gradientUnits="userSpaceOnUse">
<stop stop-color="#56CCBE"/>
<stop offset="0.962777" stop-color="#0A6156"/>
</linearGradient>
<linearGradient id="paint12_linear_386_256" x1="36.966" y1="1" x2="7.39126" y2="36.4561" gradientUnits="userSpaceOnUse">
<stop stop-color="#56CCBE"/>
<stop offset="0.962777" stop-color="#0A6156"/>
</linearGradient>
<linearGradient id="paint13_linear_386_256" x1="36.966" y1="1" x2="7.39126" y2="36.4561" gradientUnits="userSpaceOnUse">
<stop stop-color="#56CCBE"/>
<stop offset="0.962777" stop-color="#0A6156"/>
</linearGradient>
<linearGradient id="paint14_linear_386_256" x1="36.966" y1="1" x2="7.39126" y2="36.4561" gradientUnits="userSpaceOnUse">
<stop stop-color="#56CCBE"/>
<stop offset="0.962777" stop-color="#0A6156"/>
</linearGradient>
</defs>
</svg>
