<svg width="33" height="32" viewBox="0 0 33 32" fill="none" xmlns="http://www.w3.org/2000/svg">
<g id="Frame 2">
<path id="icon-linkedin" d="M27.7454 27.271H23.0124V19.844C23.0124 18.073 22.9754 15.797 20.5374 15.797C18.0694 15.797 17.6934 17.718 17.6934 19.713V27.27H12.9544V11.999H17.5064V14.082H17.5674C18.2034 12.879 19.7504 11.614 22.0584 11.614C26.8594 11.614 27.7504 14.775 27.7504 18.885V27.27L27.7454 27.271ZM7.60035 9.912C6.07335 9.912 4.84935 8.677 4.84935 7.156C4.84935 5.64 6.07835 4.407 7.60035 4.407C9.12235 4.407 10.3554 5.64 10.3554 7.156C10.3554 8.677 9.12235 9.912 7.60035 9.912ZM9.97435 27.271H5.22535V12H9.97435V27.271ZM30.1214 0H2.84535C1.54235 0 0.485352 1.031 0.485352 2.307V29.694C0.485352 30.97 1.54235 32.001 2.84535 32.001H30.1164C31.4174 32.001 32.4854 30.97 32.4854 29.694V2.307C32.4854 1.031 31.4174 0 30.1164 0L30.1214 0Z" fill="url(#paint0_linear_53_160)"/>
</g>
<defs>
<linearGradient id="paint0_linear_53_160" x1="32.4854" y1="0" x2="2.48435" y2="32.0001" gradientUnits="userSpaceOnUse">
<stop stop-color="#56CCBE"/>
<stop offset="0.962777" stop-color="#0A6156"/>
</linearGradient>
</defs>
</svg>
