<svg width="34" height="32" viewBox="0 0 34 32" fill="none" xmlns="http://www.w3.org/2000/svg">
<g id="Frame 3">
<g id="Group 5267">
<path id="icon-github" d="M17.0833 0.00102524C8.02105 0.00102524 0.679199 7.34903 0.679199 16.4051C0.679199 23.6567 5.37897 29.8031 11.8924 31.9716C12.7157 32.1264 13.013 31.6189 13.013 31.1801C13.013 30.7905 13.0038 29.7601 12.9976 28.3924C8.43218 29.3807 7.47049 26.1871 7.47049 26.1871C6.72308 24.2965 5.64451 23.789 5.64451 23.789C4.15994 22.775 5.76242 22.7966 5.76242 22.7966C7.40693 22.9083 8.27224 24.4831 8.27224 24.4831C9.73528 26.9929 12.1108 26.267 13.051 25.8446C13.1945 24.7876 13.622 24.0607 14.0875 23.6557C10.4458 23.2446 6.61645 21.8349 6.61645 15.549C6.61645 13.7538 7.25211 12.2918 8.303 11.1435C8.12153 10.7324 7.56584 9.06121 8.44756 6.80154C8.44756 6.80154 9.82038 6.36376 12.9587 8.48399C14.272 8.12002 15.6664 7.93855 17.0597 7.92932C18.4541 7.93855 19.8474 8.12105 21.1607 8.48399C24.2806 6.36376 25.6524 6.80154 25.6524 6.80154C26.5331 9.06121 25.9774 10.7313 25.8174 11.1435C26.8581 12.2918 27.4937 13.7548 27.4937 15.549C27.4937 21.8492 23.6593 23.2384 20.0135 23.6393C20.5835 24.1304 21.1177 25.1403 21.1177 26.673C21.1177 28.8671 21.0972 30.6346 21.0972 31.1688C21.0972 31.5953 21.3842 32.1079 22.229 31.9429C28.7907 29.797 33.4853 23.6455 33.4853 16.4041C33.4853 7.348 26.1435 0 17.0812 0L17.0833 0.00102524Z" fill="url(#paint0_linear_53_157)"/>
</g>
</g>
<defs>
<linearGradient id="paint0_linear_53_157" x1="33.4853" y1="0" x2="3.54261" y2="32.7435" gradientUnits="userSpaceOnUse">
<stop stop-color="#56CCBE"/>
<stop offset="0.962777" stop-color="#0A6156"/>
</linearGradient>
</defs>
</svg>
