<svg width="29" height="33" viewBox="0 0 29 33" fill="none" xmlns="http://www.w3.org/2000/svg">
<g id="icon-gsap">
<g id="Vector">
<path fill-rule="evenodd" clip-rule="evenodd" d="M0 33H29V0H0V33ZM14.9488 31.9792C15.1944 32.1987 15.6274 32.3971 16.0453 32.4703L16.0443 32.4683C16.5244 32.5515 17.4114 32.4623 17.7251 32.3009C17.8664 32.2328 17.9075 32.1857 17.9496 32.0604C18.0118 31.8619 17.9857 31.5272 17.8504 30.995C17.7722 30.6823 17.7512 30.5099 17.7562 30.2433C17.7622 30.0498 17.7462 29.8043 17.7201 29.695C17.689 29.5437 17.689 29.4655 17.7251 29.3663C17.7512 29.2931 17.7873 28.9483 17.8033 28.5935C17.8193 28.2959 17.8454 27.9932 17.8975 27.6955C17.9657 27.3868 18.2373 26.7193 18.5971 25.9726C18.7434 25.686 18.8587 25.3883 18.9419 25.0856C19.0351 24.6727 19.1133 23.8849 19.0772 23.6393C19.0561 23.473 19.0661 23.4419 19.2075 23.2535C19.3538 23.061 19.4741 22.7844 19.4791 22.6431C19.4791 22.611 19.5833 22.5118 19.7086 22.4286C19.9963 22.2352 20.5024 21.703 20.7319 21.3582C20.8261 21.2129 20.9093 21.0976 20.9254 21.0976C20.9674 21.0926 21.2751 22.2312 21.2912 22.4657L21.3122 22.7112L20.9314 23.0921C20.6337 23.3898 20.5244 23.5301 20.4252 23.7446L20.2949 24.0162L20.1386 24.0002C20.0133 23.9951 19.9662 24.0062 19.9401 24.0633C19.7938 24.355 19.9291 25.6449 20.1747 26.3495L20.4252 27.044C20.7179 27.8579 20.8011 28.5785 20.6758 29.1839C20.6126 29.4395 20.5395 29.69 20.4563 29.9356C20.2689 30.4938 20.2428 30.8336 20.3781 31.0942C20.6177 31.5482 20.8843 31.6114 22.7114 31.6374C23.401 31.6374 24.0945 31.6735 24.7841 31.7367C26.1101 31.878 26.7686 31.8048 27.1023 31.4811C27.2116 31.3768 27.2376 31.3297 27.2376 31.1994C27.2376 30.9068 27.1174 30.8186 26.2454 30.4738C25.645 30.2443 25.0707 29.9516 24.5385 29.5968L23.9171 29.1949C23.6405 29.0125 23.6405 29.0235 23.6455 27.8068C23.6455 26.6271 23.6615 26.4918 23.8911 25.275C23.9742 24.8421 24.0424 24.4191 24.0424 24.3409C24.0424 24.1635 23.9592 24.0743 23.8079 24.0743C23.6926 24.0743 23.6926 24.0743 23.7187 23.913C23.7497 23.7255 23.8019 23.5531 23.9432 23.1823C24.0584 22.8646 24.1256 22.3835 24.0945 22.0969C24.0745 21.8934 24.0795 21.8573 24.1837 21.6899C24.3661 21.3612 24.5024 21.0064 24.5806 20.6406C24.6899 20.1444 24.7159 18.9908 24.6327 18.197C24.5806 17.6799 24.4243 16.7457 24.3611 16.5162C24.3401 16.4541 24.3451 16.4541 24.4443 16.5062C24.6849 16.6315 25.0818 16.7257 25.3634 16.7257H25.645L25.9217 16.4441C26.1923 16.1624 26.4017 15.8227 26.5842 15.3376C26.6313 15.2223 26.7515 15.0349 26.8508 14.9146C27.7999 13.782 27.9152 12.5132 27.1374 11.7354L26.9811 11.5791L27.0332 11.3385C27.1274 10.9316 27.0432 10.4515 26.8137 10.0596C26.7044 9.87721 26.7044 9.8722 26.7565 9.68377C26.9029 9.18264 26.8558 8.62438 26.6212 8.14429C26.4699 7.82056 26.073 7.41364 25.7803 7.26731C25.65 7.20918 25.5348 7.12098 25.4516 7.0007C25.2742 6.73911 25.196 6.687 24.9815 6.687C24.8242 6.687 24.7831 6.67196 24.7149 6.58276C24.5997 6.44144 24.4583 6.38932 24.297 6.43643C24.2138 6.46249 24.1667 6.46249 24.1617 6.43643C24.1196 6.31114 23.9161 6.13875 23.6445 5.99744C23.3629 5.8511 23.3108 5.83507 23.0131 5.83006C22.7104 5.82505 22.6893 5.82003 22.6683 5.73083C22.6573 5.68373 22.6312 5.34396 22.6212 4.98414C22.5951 4.42087 22.6052 4.18032 22.6944 3.31938C22.8407 1.826 22.7936 1.18956 22.5119 0.917945C22.1982 0.615261 21.7753 0.5 20.9404 0.5C20.2568 0.5 19.9592 0.557129 19.5623 0.750567C19.2957 0.880862 19.2435 0.954027 19.1654 1.30883C19.0922 1.63858 19.1022 3.31938 19.1754 3.75236C19.2325 4.0811 19.2225 4.35271 19.1283 4.89594C19.0862 5.14651 19.0812 5.15653 18.9298 5.22469C18.8096 5.27681 18.6843 5.28683 18.4077 5.28182L18.0478 5.27681L17.7973 5.44418L17.5467 5.61657L17.3433 5.54341C17.0295 5.43316 16.9363 5.44418 16.6226 5.64764C16.356 5.82605 16.33 5.83106 16.0533 5.83607C15.7246 5.84108 15.4379 5.94031 15.1453 6.14377C15.015 6.23197 14.8225 6.31014 14.5088 6.39934C13.0155 6.80626 10.8335 7.56899 9.14771 8.27358C8.19857 8.67048 6.14693 9.79803 4.87806 10.6179C3.33256 11.6151 1.99654 13.0925 1.20274 14.6951C0.581336 15.9379 0.289677 17.5877 0.670538 17.6448C0.72867 17.6548 0.858964 17.5456 1.10953 17.295C1.66779 16.7367 2.6861 15.8858 3.62021 15.2073C4.00107 14.9306 4.39797 14.6751 4.81592 14.4455C4.9412 14.3774 5.19778 14.226 5.38019 14.1058L5.71395 13.8913L5.86529 14.0426C5.98556 14.1729 6.0898 14.3142 6.18401 14.4656C6.55986 15.076 6.76332 15.8277 6.94573 17.295C7.08104 18.3804 7.41479 19.1171 8.05725 19.7485C8.91819 20.5945 9.87335 20.9442 11.5441 21.0224C11.92 21.0375 12.2958 21.0645 12.6667 21.1006C13.8052 21.2359 14.6091 21.6328 15.2194 22.3534C15.7156 22.9438 15.8409 23.0741 15.9922 23.1683L16.1596 23.2675L16.0443 23.5441C15.893 23.9611 15.7787 24.389 15.7106 24.828C15.6845 24.9804 15.6534 25.9616 15.6374 27.021L15.6063 28.9363L15.4861 29.223C15.4179 29.3793 15.3297 29.6249 15.2876 29.7762C15.2204 29.9957 15.1262 30.2042 15.006 30.3976C14.8075 30.7414 14.6822 31.0862 14.6822 31.3317C14.6882 31.5723 14.7815 31.8068 14.9488 31.9792Z" fill="url(#paint0_linear_386_257)"/>
<path d="M21.4586 5.0072C21.8344 4.93403 22.0168 4.66242 22.1581 3.97386C22.3045 3.23218 22.3776 2.06855 22.3095 1.57243C22.2463 1.12341 21.7452 0.924961 20.79 0.956032C20.1947 0.977079 19.9491 1.03421 19.7457 1.2066C19.6218 1.30967 19.6204 1.3216 19.5652 1.80064L19.5633 1.81698C19.459 2.76713 19.6154 4.11919 19.887 4.62533C20.0173 4.87089 20.1326 4.95909 20.3721 5.00118C20.6437 5.04829 21.223 5.04829 21.4576 5.00619L21.4586 5.0072Z" fill="url(#paint1_linear_386_257)"/>
<path d="M22.0639 6.19288L22.3827 6.0255L22.3726 5.70177C22.3676 5.47726 22.3566 5.25776 22.3466 5.03927L22.3205 4.70551L22.0018 4.95107C21.8134 5.0974 21.6309 5.20665 21.5528 5.22268C21.3233 5.26478 20.1907 5.22268 20.0855 5.16555C19.9441 5.06132 19.8138 4.94606 19.6936 4.82077L19.4009 4.5231L19.3959 4.7005C19.3959 4.79471 19.3859 4.95608 19.3648 5.0553C19.3388 5.24373 19.3388 5.24874 19.5422 5.50432C19.6515 5.64564 19.7407 5.77092 19.7407 5.78596C19.7407 5.88518 21.2491 6.35524 21.5889 6.36026C21.6981 6.36026 21.8344 6.31315 22.0639 6.19288Z" fill="url(#paint2_linear_386_257)"/>
<path d="M25.0397 7.10594C25.3063 7.07988 25.3534 7.0428 25.2381 6.92353C25.1649 6.85036 24.9976 6.84535 24.8623 6.90749C24.7731 6.94959 24.753 6.93856 24.6117 6.78722C24.4654 6.62586 24.4553 6.61984 24.2719 6.64089C24.1045 6.66194 24.0785 6.65693 24.0574 6.58877C23.9893 6.47351 23.9111 6.37429 23.8169 6.28609C23.6966 6.15078 23.5503 6.04554 23.3839 5.97839C23.0602 5.85311 22.8778 5.86915 22.5691 6.04154C21.6761 6.52663 21.7131 6.52162 20.8512 6.30212C20.0474 6.09866 19.447 5.89019 19.2536 5.7589C19.0922 5.64965 18.7474 5.52938 18.4598 5.49229C18.2453 5.46122 18.11 5.50833 17.9065 5.67471L17.7973 5.76391L17.8965 5.9363C18.0318 6.17684 18.0168 6.19187 17.8133 6.01447C17.5938 5.83206 17.3332 5.70678 17.1659 5.70076C17.0456 5.70076 16.6908 5.85712 16.6487 5.92527C16.6326 5.94632 16.7429 5.97238 16.8892 5.9824C17.0406 5.99844 17.249 6.05056 17.3904 6.10768C17.7562 6.26404 17.9436 6.31616 18.2774 6.34823C18.6432 6.38431 19.3057 6.34322 19.3839 6.28007C19.426 6.24399 19.5402 6.23798 19.7808 6.25903C20.0995 6.28007 20.2298 6.31114 20.9865 6.51461C21.4255 6.63488 21.7332 6.62385 22.2554 6.48353C22.4959 6.41538 22.7986 6.34823 22.9239 6.33219C23.1384 6.31114 23.1795 6.32217 23.5142 6.47351C24.0464 6.71406 24.3291 6.8654 24.4854 7.00572C24.6418 7.14102 24.6628 7.14102 25.0387 7.10995L25.0397 7.10594Z" fill="url(#paint3_linear_386_257)"/>
<path d="M18.3365 15.965C18.6552 15.7144 18.9058 15.4638 19.0461 15.2494C19.1353 15.1191 19.1403 15.093 19.0982 14.9828C19.0251 14.8154 18.545 14.3824 18.2784 14.2521C18.101 14.1739 17.9125 14.1168 17.7201 14.0907L17.3914 14.0486L17.1879 13.7931C16.7649 13.2709 16.5304 12.864 16.1957 12.0752C15.903 11.4067 15.6474 11.0158 15.2405 10.6289C15.0731 10.4726 14.9538 10.3423 14.9639 10.3423C14.9849 10.3423 15.1834 10.4415 15.4129 10.5618C15.7937 10.7652 15.8409 10.7813 16.0132 10.7552C16.6346 10.682 17.1829 9.96741 17.3813 8.96515C17.4385 8.68351 17.5537 8.39586 17.674 8.22347C17.679 8.21846 17.9196 8.37481 18.2012 8.57827C18.9168 9.08442 19.0732 9.16259 19.4801 9.17863C19.7467 9.18865 19.898 9.16861 20.3781 9.05335C21.4014 8.80278 22.5079 8.70356 23.1815 8.79276C23.5623 8.84487 24.1106 9.01225 24.5175 9.20469C24.9194 9.39312 24.9976 9.40314 25.1279 9.28788C25.2371 9.19366 25.2371 9.17863 25.2371 8.82884C25.2321 8.31167 25.0437 7.75341 24.757 7.41965C24.6107 7.24726 24.1988 6.96563 23.7908 6.75114C23.6445 6.67296 23.4982 6.59479 23.3579 6.51661C23.1644 6.40135 22.9459 6.41738 22.3506 6.57374C21.661 6.75114 21.4786 6.75114 20.6908 6.54768C20.0223 6.3803 19.9812 6.37529 19.3227 6.47953C18.9729 6.53164 18.096 6.50057 17.8033 6.4224C17.657 6.3803 17.5106 6.33921 17.3703 6.28709C17.1147 6.18787 16.6707 6.17183 16.2688 6.245C15.47 6.38631 14.8646 6.81929 14.6451 7.40863C14.5299 7.7063 14.5459 7.84762 14.6973 7.94083C14.9378 8.09217 15.2555 8.50511 15.2555 8.66647C15.2555 8.6765 15.1774 8.60934 15.0882 8.51513C14.8636 8.2806 14.6602 8.17536 14.4196 8.17536C14.1009 8.18538 13.8143 8.37381 13.684 8.66046C13.6158 8.84287 13.5537 9.0313 13.5066 9.22474C13.3602 9.75694 13.2299 10.0396 12.9533 10.4154C12.7078 10.7552 12.6717 10.9065 12.7599 11.2874C12.9794 12.2476 13.3602 12.6344 14.9518 13.5375C15.7867 14.0126 16.2147 14.2792 16.5284 14.5137C16.769 14.6911 16.774 14.7021 16.7529 14.8374C16.7058 15.1511 16.9043 15.4899 17.2961 15.7665C17.3954 15.8347 17.4575 15.9079 17.4575 15.96C17.4575 16.0542 17.7241 16.1845 17.9165 16.1845C18.0258 16.1845 18.11 16.1374 18.3345 15.965H18.3365Z" fill="url(#paint4_linear_386_257)"/>
<path d="M22.7425 14.1739C23.1083 14.1529 23.4841 14.1268 23.5834 14.1108L23.7658 14.0847L23.7868 13.4844C23.8179 12.6284 23.9432 12.1223 24.314 11.3125C24.5746 10.7382 24.6899 10.237 24.6327 9.86117C24.6117 9.69981 24.6017 9.68878 24.3822 9.59457C23.9803 9.43321 23.5623 9.32296 23.1344 9.2548C22.7224 9.19767 21.5107 9.22874 21.0567 9.31795C20.8682 9.34902 20.5244 9.42218 20.2949 9.47931C19.7256 9.60961 19.423 9.59457 18.99 9.40615C18.562 9.21772 18.2904 9.04633 18.0348 8.80579C17.8314 8.61736 17.8103 8.60734 17.7582 8.67048C17.7161 8.71759 17.695 8.85891 17.68 9.16159C17.664 9.62664 17.5908 9.8712 17.3874 10.1999C17.3402 10.2681 17.3042 10.3413 17.2721 10.4144C17.2721 10.4305 17.4284 10.6129 17.6219 10.8113C18.2904 11.5059 18.6191 11.6833 19.1463 11.6462C19.3187 11.6302 19.439 11.6362 19.439 11.6562C19.439 11.6983 19.0992 11.9639 18.9589 12.0371C18.8908 12.0732 18.8757 12.1103 18.8857 12.1884L18.9689 12.7367C19.016 13.0504 19.0521 13.1957 19.0992 13.2378C19.2245 13.342 19.872 13.6768 20.2789 13.8432C20.8111 14.0577 21.1038 14.1358 21.5107 14.1719C22.0118 14.214 22.0218 14.214 22.7425 14.1719V14.1739Z" fill="url(#paint5_linear_386_257)"/>
<path d="M17.4495 28.9784C17.4705 28.9624 17.5016 28.6807 17.5126 28.347C17.5547 27.4129 17.5908 27.2766 18.0609 26.2222C18.4467 25.3612 18.6512 24.5574 18.6352 23.9881L18.6252 23.6484L18.4788 23.7897C18.1761 24.0924 18.3846 23.6173 18.7454 23.1943C19.017 22.8706 19.1112 22.6932 19.1523 22.4066C19.1734 22.2913 19.2155 22.2342 19.3929 22.0989C20.0664 21.5877 20.5515 20.9402 20.8702 20.1464C20.9434 19.958 21.1308 19.3166 21.2882 18.7212C21.5808 17.6197 21.7372 17.1446 21.8785 16.9412C21.9306 16.863 21.9517 16.847 21.9417 16.8991C21.8585 17.2128 21.8324 17.3431 21.7643 17.75C21.7222 18.0056 21.644 18.5067 21.5919 18.8565C21.4926 19.5721 21.3884 20.0312 21.2471 20.386L21.1529 20.6265L21.4034 21.274C21.664 21.9365 21.7843 22.4176 21.8053 22.8816L21.8214 23.1422L21.6179 23.1843C21.3463 23.2314 21.1118 23.3828 20.9494 23.6023C20.772 23.8578 20.6728 24.0673 20.7199 24.1134C20.7409 24.1345 20.9965 24.1816 21.2892 24.2176C21.7432 24.2698 21.9156 24.2698 22.516 24.2337C22.7765 24.2237 23.0331 24.1976 23.2887 24.1605C23.3458 24.1395 23.404 24.0252 23.4972 23.7275C23.7117 23.044 23.7527 22.8035 23.7267 22.3234L23.7056 21.9004L23.8149 21.7591C24.0705 21.4354 24.2689 20.851 24.3521 20.1665C24.4513 19.3316 24.2689 17.5826 23.9291 16.0792C23.7678 15.3636 23.6996 14.9357 23.6996 14.6229V14.3463L23.4441 14.3724C22.525 14.4716 21.4135 14.4455 20.7349 14.3042C20.3641 14.2311 19.43 13.9544 19.2265 13.8652L19.0651 13.7921L19.0441 13.9745C19.0281 14.0737 19.013 14.1729 18.992 14.2772C18.9609 14.3864 18.9709 14.4125 19.1644 14.6009C19.4049 14.8465 19.4781 14.9717 19.4781 15.1381C19.4781 15.2423 19.421 15.3265 19.1283 15.6292C18.9138 15.8537 18.6432 16.0943 18.4337 16.2296L18.0939 16.4591L17.9476 16.9652C17.4254 18.8184 17.3262 20.5042 17.671 21.71L17.7542 22.0127L17.5868 22.2211C16.9604 23.0089 16.5895 23.6093 16.5324 23.944C16.5224 24.0122 16.4693 24.2307 16.4172 24.4351C16.2819 24.9523 16.1766 25.709 16.1305 26.5289C16.0994 27.2124 16.0523 27.902 15.9952 28.5855L15.9691 28.789L16.2297 28.8672C16.3761 28.9143 16.5956 28.9664 16.7208 28.9874C16.9554 29.0235 17.3894 29.0135 17.4565 28.9774L17.4495 28.9784Z" fill="url(#paint6_linear_386_257)"/>
<path d="M22.1782 25.1989C22.7104 25.1518 23.3739 25.0375 23.5042 24.9693C23.5463 24.9483 23.5824 24.8701 23.5984 24.7809L23.6455 24.5043L23.6716 24.374L23.5413 24.4001C22.962 24.5203 22.523 24.5564 21.646 24.5564C20.79 24.5564 20.6908 24.5514 20.4663 24.4732C20.3831 24.4371 20.2889 24.4161 20.1947 24.4101C20.1586 24.4311 20.1526 24.7288 20.1847 24.9373C20.2057 25.0626 20.2268 25.0836 20.3521 25.1197C20.749 25.2289 21.4175 25.255 22.1792 25.1929L22.1782 25.1989Z" fill="url(#paint7_linear_386_257)"/>
<path d="M22.518 26.1069C22.9249 26.0809 23.2957 26.0177 23.3689 25.9556C23.4 25.9345 23.437 25.8253 23.4471 25.715L23.4731 25.5166L23.1494 25.5898C22.8938 25.6419 22.6382 25.6729 22.3816 25.694C21.7653 25.72 21.1448 25.704 20.5335 25.6419C20.33 25.6108 20.33 25.6108 20.3921 25.8764C20.4443 26.0749 20.4553 26.0849 20.9875 26.122C21.3423 26.153 21.8384 26.148 22.517 26.1059L22.518 26.1069Z" fill="url(#paint8_linear_386_257)"/>
<path d="M25.8064 31.4209C25.9627 31.2325 25.9417 31.0401 25.7433 30.8206C25.628 30.7053 25.4977 30.6061 25.3514 30.5279C25.205 30.4497 25.0587 30.3605 24.9124 30.2673C24.7971 30.1841 24.4323 29.9697 24.0975 29.7872C23.857 29.657 23.6225 29.5206 23.3929 29.3753L23.2987 29.3022V27.8669C23.2987 26.4527 23.2937 26.4317 23.2205 26.4527C22.8547 26.5519 22.2493 26.599 21.4826 26.583L20.6527 26.573L20.773 26.8656C20.9975 27.4189 21.1128 28.1606 21.1128 29.0115C21.1128 29.3302 21.0917 29.4445 21.0136 29.669C20.9715 29.7782 20.9354 29.8885 20.8983 29.9977C20.8823 30.0448 20.9404 30.0809 21.1539 30.1441C21.3102 30.1912 21.5397 30.2383 21.671 30.2533L21.9116 30.2794L21.8855 30.5199C21.8595 30.7915 21.8905 31.0782 21.9587 31.1674C22.0008 31.2195 22.1571 31.2405 22.8828 31.2716C23.431 31.2977 24.0264 31.3548 24.4954 31.4229C24.9024 31.4861 25.3413 31.5382 25.4716 31.5382C25.6911 31.5432 25.7122 31.5332 25.8054 31.4229L25.8064 31.4209Z" fill="url(#paint9_linear_386_257)"/>
<path d="M17.3132 32.0423C17.4956 31.9902 17.653 31.8339 17.653 31.6926C17.653 31.6294 17.6008 31.447 17.5377 31.2856C17.4124 30.9779 17.1979 30.1631 17.1979 30.0278C17.1979 29.9596 17.2029 29.9546 17.3072 30.0118L17.4224 30.0749V29.9286C17.4064 29.7933 17.3753 29.662 17.3332 29.5317C17.234 29.234 17.224 29.229 16.5916 29.1919L16.1636 29.1709L16.0072 29.3222C15.924 29.4114 15.8459 29.5046 15.7827 29.6149C15.7146 29.7502 15.6885 29.9546 15.7306 30.0007C15.7406 30.0168 15.8459 30.0007 15.9601 29.9747C16.0283 29.9536 16.0954 29.9436 16.1686 29.9386C16.1686 29.9436 16.0533 30.0378 15.908 30.137C15.2816 30.6071 15.0621 30.8938 15.0621 31.2596C15.0621 31.6404 15.4219 31.9381 15.9862 32.0273C16.3721 32.0844 17.1238 32.1005 17.3122 32.0434L17.3132 32.0423Z" fill="url(#paint10_linear_386_257)"/>
<path d="M12.4903 20.4902C13.8263 20.1043 15.5753 18.9708 17.0055 17.5516C17.4705 17.0865 17.5277 17.0244 17.5898 16.8159L17.673 16.5493C17.683 16.5283 17.5998 16.4922 17.4906 16.4661C17.2039 16.398 16.9844 16.2316 16.9844 16.0802C16.9844 15.991 16.9323 15.9028 16.781 15.7405C16.5354 15.4638 16.4733 15.3436 16.4472 15.078L16.4262 14.8635L16.1335 14.655C15.9661 14.5347 15.3818 14.211 14.7604 13.8983C14.2903 13.6688 13.8263 13.4182 13.3723 13.1466C12.8501 12.7968 12.5003 12.3789 12.3018 11.8837C12.2658 11.7845 12.2187 11.7013 12.2026 11.7013C12.1605 11.7013 10.9859 12.8339 10.4847 13.3661C9.24794 14.6711 8.39701 15.8036 7.8588 16.853C7.72349 17.1136 7.57716 17.4223 7.53507 17.5365L7.45689 17.745L7.5511 18.0948C7.60823 18.2832 7.7285 18.5909 7.82272 18.7733C8.15146 19.4208 8.54335 19.8117 9.19081 20.1304C9.88538 20.4752 10.5008 20.5955 11.5291 20.5794C12.0824 20.5744 12.2447 20.5584 12.4893 20.4852L12.4903 20.4902Z" fill="url(#paint11_linear_386_257)"/>
<path d="M1.94542 15.9119C2.82241 15.1341 4.03314 14.2832 5.5165 13.4012C6.4877 12.8219 10.2412 10.9426 11.9691 10.1749C12.2828 10.0336 12.5644 9.90327 12.5955 9.88824C12.6266 9.86719 12.7158 9.64268 12.799 9.39211C13.1648 8.23349 13.3472 8.00397 14.0097 7.85263C14.0929 7.83158 14.1139 7.80552 14.1139 7.72234C14.1139 7.57099 14.2182 7.2212 14.3074 7.06485C14.3755 6.94458 14.3755 6.93957 14.3174 6.9556C14.2813 6.96563 14.0618 7.02877 13.8323 7.09692C10.6481 8.016 7.86581 9.23676 5.46438 10.7612C2.90159 12.3899 1.42424 14.3423 0.996275 16.6806L0.965205 16.853L1.27891 16.5453C1.44629 16.3729 1.74898 16.0913 1.94743 15.9189L1.94542 15.9119Z" fill="url(#paint12_linear_386_257)"/>
<path d="M25.5669 16.3559C25.8224 16.2256 26.2193 15.6252 26.3657 15.1501C26.4078 14.9828 26.4909 14.8264 26.6112 14.6961C26.9971 14.2681 27.3158 13.4904 27.3208 12.9582C27.3208 12.1283 26.8508 11.8096 26.1672 12.1644C26.078 12.2065 26.0058 12.2375 25.9948 12.2275C25.9587 12.1914 26.1512 12.003 26.3867 11.8567C26.6944 11.6532 26.7525 11.533 26.7525 11.1C26.7525 10.7341 26.6633 10.4425 26.4549 10.1188C26.3606 9.97744 26.3246 9.88423 26.3396 9.82609L26.4338 9.4763C26.5641 9.01125 26.517 8.47905 26.3135 8.14028C26.0109 7.62913 25.64 7.37856 25.1228 7.33646L24.8202 7.31542L24.9976 7.51387C25.5248 8.08315 25.7803 8.79777 25.6761 9.40915C25.624 9.72286 25.5769 9.785 25.2742 9.90527L25.0968 9.97844L25.1178 10.219C25.1539 10.6109 25.0868 10.8975 24.8362 11.4247C24.7109 11.6913 24.6167 11.9309 24.6277 11.9569C24.6588 12.0461 25.0036 12.2125 25.2752 12.2806L25.5418 12.3438L25.3744 12.4009C25.1549 12.4691 25.1078 12.5683 25.1078 12.9281C25.1078 13.2569 25.1549 13.3932 25.3945 13.753C25.5037 13.9093 25.5769 14.0717 25.5879 14.1649C25.6089 14.3112 25.6039 14.3213 25.4837 14.3634C25.3484 14.3994 25.207 14.4265 25.0657 14.4315C24.5746 14.4626 24.5385 14.4786 24.319 14.6871C24.1206 14.8755 24.1156 14.8855 24.1156 15.094C24.1156 15.3807 24.2248 15.961 24.293 16.0392C24.3822 16.1334 24.8773 16.3789 25.0707 16.415C25.2381 16.4571 25.4155 16.436 25.5669 16.3579V16.3559Z" fill="url(#paint13_linear_386_257)"/>
</g>
</g>
<defs>
<linearGradient id="paint0_linear_386_257" x1="29" y1="0" x2="-1.93723" y2="28.9997" gradientUnits="userSpaceOnUse">
<stop stop-color="#56CCBE"/>
<stop offset="0.962777" stop-color="#0A6156"/>
</linearGradient>
<linearGradient id="paint1_linear_386_257" x1="29" y1="0" x2="-1.93723" y2="28.9997" gradientUnits="userSpaceOnUse">
<stop stop-color="#56CCBE"/>
<stop offset="0.962777" stop-color="#0A6156"/>
</linearGradient>
<linearGradient id="paint2_linear_386_257" x1="29" y1="0" x2="-1.93723" y2="28.9997" gradientUnits="userSpaceOnUse">
<stop stop-color="#56CCBE"/>
<stop offset="0.962777" stop-color="#0A6156"/>
</linearGradient>
<linearGradient id="paint3_linear_386_257" x1="29" y1="0" x2="-1.93723" y2="28.9997" gradientUnits="userSpaceOnUse">
<stop stop-color="#56CCBE"/>
<stop offset="0.962777" stop-color="#0A6156"/>
</linearGradient>
<linearGradient id="paint4_linear_386_257" x1="29" y1="0" x2="-1.93723" y2="28.9997" gradientUnits="userSpaceOnUse">
<stop stop-color="#56CCBE"/>
<stop offset="0.962777" stop-color="#0A6156"/>
</linearGradient>
<linearGradient id="paint5_linear_386_257" x1="29" y1="0" x2="-1.93723" y2="28.9997" gradientUnits="userSpaceOnUse">
<stop stop-color="#56CCBE"/>
<stop offset="0.962777" stop-color="#0A6156"/>
</linearGradient>
<linearGradient id="paint6_linear_386_257" x1="29" y1="0" x2="-1.93723" y2="28.9997" gradientUnits="userSpaceOnUse">
<stop stop-color="#56CCBE"/>
<stop offset="0.962777" stop-color="#0A6156"/>
</linearGradient>
<linearGradient id="paint7_linear_386_257" x1="29" y1="0" x2="-1.93723" y2="28.9997" gradientUnits="userSpaceOnUse">
<stop stop-color="#56CCBE"/>
<stop offset="0.962777" stop-color="#0A6156"/>
</linearGradient>
<linearGradient id="paint8_linear_386_257" x1="29" y1="0" x2="-1.93723" y2="28.9997" gradientUnits="userSpaceOnUse">
<stop stop-color="#56CCBE"/>
<stop offset="0.962777" stop-color="#0A6156"/>
</linearGradient>
<linearGradient id="paint9_linear_386_257" x1="29" y1="0" x2="-1.93723" y2="28.9997" gradientUnits="userSpaceOnUse">
<stop stop-color="#56CCBE"/>
<stop offset="0.962777" stop-color="#0A6156"/>
</linearGradient>
<linearGradient id="paint10_linear_386_257" x1="29" y1="0" x2="-1.93723" y2="28.9997" gradientUnits="userSpaceOnUse">
<stop stop-color="#56CCBE"/>
<stop offset="0.962777" stop-color="#0A6156"/>
</linearGradient>
<linearGradient id="paint11_linear_386_257" x1="29" y1="0" x2="-1.93723" y2="28.9997" gradientUnits="userSpaceOnUse">
<stop stop-color="#56CCBE"/>
<stop offset="0.962777" stop-color="#0A6156"/>
</linearGradient>
<linearGradient id="paint12_linear_386_257" x1="29" y1="0" x2="-1.93723" y2="28.9997" gradientUnits="userSpaceOnUse">
<stop stop-color="#56CCBE"/>
<stop offset="0.962777" stop-color="#0A6156"/>
</linearGradient>
<linearGradient id="paint13_linear_386_257" x1="29" y1="0" x2="-1.93723" y2="28.9997" gradientUnits="userSpaceOnUse">
<stop stop-color="#56CCBE"/>
<stop offset="0.962777" stop-color="#0A6156"/>
</linearGradient>
</defs>
</svg>
