<svg width="32" height="42" viewBox="0 0 32 42" fill="none" xmlns="http://www.w3.org/2000/svg">
<g id="logo">
<g filter="url(#filter0_i_344_5)">
<path d="M10.892 0.777097L0.842896 6.61596L11.0739 12.3942L20.7982 17.8862L31.1446 23.7295V11.9948L10.892 0.777097Z" fill="url(#paint0_linear_344_5)"/>
<path d="M0.842896 6.61596L0.905738 40.6427H11.0739V35.1453V23.4142V12.3942L0.842896 6.61596Z" fill="url(#paint1_linear_344_5)"/>
<path d="M20.7982 17.8862L11.0739 23.4142L21.2736 29.2813L31.1446 23.7295L20.7982 17.8862Z" fill="url(#paint2_linear_344_5)"/>
<path d="M11.0739 23.4142V35.1453L20.8822 40.7771L31.1571 34.9172L21.2736 29.2813L11.0739 23.4142Z" fill="url(#paint3_linear_344_5)"/>
</g>
<path d="M0.842896 6.61596L0.905738 40.6427H11.0739V35.1453M0.842896 6.61596L10.892 0.777097L31.1446 11.9948V23.7295M0.842896 6.61596L11.0739 12.3942M11.0739 12.3942V23.4142M11.0739 12.3942L20.7982 17.8862M11.0739 23.4142V35.1453M11.0739 23.4142L20.7982 17.8862M11.0739 23.4142L21.2736 29.2813M20.7982 17.8862L31.1446 23.7295M31.1446 23.7295L21.2736 29.2813M11.0739 35.1453L20.8822 40.7771L31.1571 34.9172L21.2736 29.2813" stroke="#E6F4F2" stroke-width="0.5" stroke-linejoin="round"/>
</g>
<defs>
<filter id="filter0_i_344_5" x="0.592896" y="0.527096" width="32.8141" height="45.5" filterUnits="userSpaceOnUse" color-interpolation-filters="sRGB">
<feFlood flood-opacity="0" result="BackgroundImageFix"/>
<feBlend mode="normal" in="SourceGraphic" in2="BackgroundImageFix" result="shape"/>
<feColorMatrix in="SourceAlpha" type="matrix" values="0 0 0 0 0 0 0 0 0 0 0 0 0 0 0 0 0 0 127 0" result="hardAlpha"/>
<feOffset dx="2" dy="5"/>
<feGaussianBlur stdDeviation="4.5"/>
<feComposite in2="hardAlpha" operator="arithmetic" k2="-1" k3="1"/>
<feColorMatrix type="matrix" values="0 0 0 0 0 0 0 0 0 0 0 0 0 0 0 0 0 0 0.25 0"/>
<feBlend mode="normal" in2="shape" result="effect1_innerShadow_344_5"/>
</filter>
<linearGradient id="paint0_linear_344_5" x1="17.8349" y1="12.7137" x2="0.882857" y2="40.6734" gradientUnits="userSpaceOnUse">
<stop offset="0.244362" stop-color="#0A6156"/>
<stop offset="0.881633" stop-color="#56CCBE"/>
</linearGradient>
<linearGradient id="paint1_linear_344_5" x1="17.8349" y1="12.7137" x2="0.882857" y2="40.6734" gradientUnits="userSpaceOnUse">
<stop offset="0.244362" stop-color="#0A6156"/>
<stop offset="0.881633" stop-color="#56CCBE"/>
</linearGradient>
<linearGradient id="paint2_linear_344_5" x1="17.8349" y1="12.7137" x2="0.882857" y2="40.6734" gradientUnits="userSpaceOnUse">
<stop offset="0.244362" stop-color="#0A6156"/>
<stop offset="0.881633" stop-color="#56CCBE"/>
</linearGradient>
<linearGradient id="paint3_linear_344_5" x1="17.8349" y1="12.7137" x2="0.882857" y2="40.6734" gradientUnits="userSpaceOnUse">
<stop offset="0.244362" stop-color="#0A6156"/>
<stop offset="0.881633" stop-color="#56CCBE"/>
</linearGradient>
</defs>
</svg>
